<?xml version="1.0" encoding="UTF-8" standalone="no"?>
<!-- Created with Inkscape (http://www.inkscape.org/) -->

<svg
   width="170.052mm"
   height="27.562mm"
   viewBox="0 0 169.22645 27.428192"
   version="1.1"
   id="svg1"
   inkscape:version="1.3.2 (091e20e, 2023-11-25, custom)"
   sodipodi:docname="logo.svg"
   xmlns:inkscape="http://www.inkscape.org/namespaces/inkscape"
   xmlns:sodipodi="http://sodipodi.sourceforge.net/DTD/sodipodi-0.dtd"
   xmlns="http://www.w3.org/2000/svg"
   xmlns:svg="http://www.w3.org/2000/svg">
  <sodipodi:namedview
     id="namedview1"
     pagecolor="#ffffff"
     bordercolor="#000000"
     borderopacity="0.25"
     inkscape:showpageshadow="2"
     inkscape:pageopacity="0.0"
     inkscape:pagecheckerboard="0"
     inkscape:deskcolor="#d1d1d1"
     inkscape:document-units="mm"
     inkscape:zoom="1.4778115"
     inkscape:cx="267.96381"
     inkscape:cy="-77.479435"
     inkscape:window-width="2560"
     inkscape:window-height="1369"
     inkscape:window-x="-8"
     inkscape:window-y="-8"
     inkscape:window-maximized="1"
     inkscape:current-layer="layer1" />
  <defs
     id="defs1">
    <pattern
       id="EMFhbasepattern"
       patternUnits="userSpaceOnUse"
       width="6"
       height="6"
       x="0"
       y="0" />
  </defs>
  <g
     inkscape:label="Ebene 1"
     inkscape:groupmode="layer"
     id="layer1"
     transform="translate(-16.752356,-55.351021)">
    <path
       style="fill:#a6cee0;fill-opacity:1"
       d="m 114.344,65.796136 c -0.0158,-0.01576 -0.0286,-0.379935 -0.0286,-0.809283 V 64.20622 l 2.98149,-2.97e-4 c 1.83753,-1.84e-4 3.07643,-0.0157 3.22893,-0.04045 0.41269,-0.06697 0.67329,-0.185916 0.89411,-0.4081 0.2267,-0.228112 0.29596,-0.406629 0.29335,-0.756187 -0.003,-0.453693 -0.17519,-0.729437 -0.57812,-0.927854 l -0.26457,-0.13029 -2.23457,-0.01166 -2.23456,-0.01165 v -0.664585 -0.664585 l 2.13526,-0.01478 c 2.36852,-0.01639 2.39943,-0.01958 2.69341,-0.277697 0.20918,-0.183655 0.29475,-0.406763 0.29634,-0.772657 0.002,-0.514015 -0.20352,-0.824959 -0.65986,-0.997118 -0.23358,-0.08812 -0.23946,-0.08831 -3.38276,-0.107958 l -3.14877,-0.01968 -0.0107,-0.778611 -0.0107,-0.778611 3.37593,0.01168 c 3.36146,0.01163 3.37726,0.01206 3.68852,0.09998 0.91885,0.259554 1.49177,0.79072 1.69518,1.571639 0.0765,0.293635 0.0765,0.989239 0,1.282873 -0.13369,0.51324 -0.41841,0.90258 -0.82986,1.134793 l -0.221,0.12472 0.26851,0.141744 c 0.3513,0.185452 0.63965,0.47824 0.81379,0.826329 0.19076,0.38131 0.23639,0.636365 0.2152,1.203001 -0.0143,0.382137 -0.0386,0.534975 -0.12546,0.788515 -0.30506,0.890549 -0.96329,1.453579 -1.9912,1.703224 -0.21978,0.05338 -0.71907,0.0643 -3.54323,0.07749 -1.80807,0.0084 -3.3003,0.0025 -3.31605,-0.0133 z"
       id="path1"
       sodipodi:nodetypes="sscssscscccccsscsscccssssscssscscss" />
    <path
       d="m 169.31867,81.2515 c -0.20854,-0.06367 -0.44768,-0.211929 -0.59741,-0.370394 -0.10959,-0.115987 -0.88285,-1.512486 -2.59728,-4.690694 -1.34268,-2.489046 -2.90704,-5.38899 -3.47636,-6.444321 l -1.03512,-1.918782 1.40295,0.0014 1.40295,0.0014 2.67559,5.094419 c 1.49099,2.838895 2.68722,5.073192 2.70184,5.046475 0.0144,-0.02637 0.46205,-0.832298 0.99469,-1.790952 0.53265,-0.958655 0.96845,-1.750498 0.96845,-1.759652 0,-0.0092 -0.77046,-1.487843 -1.71214,-3.285976 -0.94168,-1.798134 -1.71215,-3.278057 -1.71215,-3.28872 0,-0.01066 0.63096,-0.01473 1.40213,-0.009 l 1.40213,0.01034 2.54368,5.066481 c 1.39902,2.786565 2.55349,5.066964 2.56548,5.067554 0.012,5.9e-4 1.23178,-2.283755 2.71064,-5.076321 l 2.68883,-5.077394 h 1.29841 c 1.12106,0 1.29542,0.0078 1.27641,0.05736 -0.0121,0.03155 -1.56171,2.914149 -3.44357,6.405782 -3.78993,7.031898 -3.59618,6.705355 -4.09744,6.905687 -0.21925,0.08762 -0.29613,0.09886 -0.57071,0.08337 -0.22091,-0.01246 -0.37485,-0.04539 -0.50661,-0.10837 -0.38336,-0.183255 -0.44737,-0.281917 -1.58008,-2.435541 -0.58232,-1.107155 -1.06891,-2.01247 -1.08133,-2.011811 -0.0124,6.59e-4 -0.50079,0.905477 -1.08528,2.010706 -1.18038,2.232017 -1.22447,2.296616 -1.68509,2.468957 -0.2328,0.0871 -0.64896,0.110527 -0.85361,0.04805 z m -38.02141,-6.772412 v -6.651779 h 1.16111 1.16111 v 6.651779 6.65178 h -1.16111 -1.16111 z m 10.70582,3.778526 V 75.38436 h -3.34557 -3.34557 v -1.04303 -1.043031 h 3.34557 3.34557 v -2.735495 -2.735495 h 1.16111 1.16111 v 6.651779 6.65178 h -1.16111 -1.16111 z m -26.76456,1.674825 v -1.161205 l 5.225,-0.01197 c 5.67184,-0.013 5.35167,-5.76e-4 5.7957,-0.224872 0.59675,-0.301433 0.9008,-0.875902 0.85479,-1.615002 -0.0257,-0.413129 -0.11204,-0.681225 -0.2995,-0.930245 -0.17999,-0.239106 -0.44651,-0.420569 -0.78547,-0.534802 -0.26169,-0.08819 -0.26347,-0.08824 -3.96162,-0.111931 -3.20199,-0.02051 -3.73816,-0.03225 -3.98489,-0.08725 -1.87244,-0.417413 -2.9614,-1.686648 -3.02967,-3.531244 -0.0781,-2.10929 1.17307,-3.567463 3.30776,-3.855116 0.20223,-0.02725 2.02917,-0.04149 5.3234,-0.04149 h 5.0155 v 1.160098 1.160097 l -5.00851,0.01085 -5.00852,0.01085 -0.22565,0.08621 c -0.65239,0.249243 -0.97588,0.74093 -0.98232,1.493038 -0.004,0.419319 0.0609,0.671925 0.24383,0.954935 0.16786,0.259709 0.40588,0.44263 0.74106,0.569504 0.2208,0.08358 0.26135,0.08467 3.96225,0.10677 3.60231,0.02151 3.75213,0.02532 4.0934,0.104066 0.42558,0.0982 0.94519,0.284985 1.19511,0.429607 1.01574,0.587763 1.55362,1.596223 1.60819,3.015146 0.0455,1.182454 -0.20614,2.07426 -0.7931,2.810977 -0.49152,0.616918 -1.14343,1.00173 -2.1086,1.244676 -0.33248,0.08369 -0.36816,0.08429 -5.75634,0.09686 l -5.4218,0.01265 z m 36.56511,1.117868 c -3.29412,-0.433361 -5.59316,-3.206423 -5.5883,-6.740513 0.005,-3.450998 2.16202,-5.985154 5.47022,-6.42589 0.59474,-0.07923 4.64388,-0.07871 5.2402,6.75e-4 3.35357,0.446451 5.50499,2.964795 5.50499,6.443862 0,3.051777 -1.74331,5.597164 -4.41246,6.442582 -0.94077,0.297979 -0.89169,0.293787 -3.55787,0.303865 -1.32052,0.005 -2.51607,-0.0061 -2.65678,-0.02458 z m 5.03804,-2.376457 c 1.44466,-0.335841 2.51345,-1.276425 2.98589,-2.627707 0.48813,-1.396154 0.30811,-2.999855 -0.46507,-4.143133 -0.65148,-0.963309 -1.68956,-1.573985 -2.91442,-1.714466 -0.44691,-0.05126 -3.90924,-0.05003 -4.32045,0.0015 -1.8019,0.225939 -3.09741,1.443555 -3.4955,3.285341 -0.10151,0.469641 -0.096,1.454973 0.0108,1.948302 0.38786,1.790621 1.64152,3.013216 3.37319,3.289609 0.23876,0.03811 0.84783,0.04816 2.4246,0.04002 1.83767,-0.0095 2.14332,-0.01961 2.40094,-0.0795 z"
       style="fill:#deeaf0;fill-opacity:1"
       id="path1-38" />
    <path
       d="m 73.099262,70.305921 c -1.950973,-0.179769 -3.320267,-0.681267 -4.24691,-1.555415 -0.871423,-0.822057 -1.354598,-1.963154 -1.499203,-3.540613 -0.02353,-0.256712 -0.0397,-2.039184 -0.03972,-4.37876 l -3.3e-5,-3.945804 h 1.200469 1.200469 v 3.830729 c 0,2.490268 0.01509,3.980695 0.04313,4.259298 0.187536,1.863368 1.093915,2.699722 3.243397,2.992823 0.717951,0.0979 2.391461,0.0979 3.109412,0 0.964237,-0.131483 1.559099,-0.330177 2.092542,-0.698946 0.673875,-0.465849 1.040402,-1.196407 1.150855,-2.293877 0.02804,-0.278603 0.04313,-1.76903 0.04313,-4.259298 v -3.830729 h 1.14143 1.14143 l -8.94e-4,3.847404 c -4.91e-4,2.116073 -0.01808,4.06846 -0.03908,4.338637 -0.246848,3.175513 -1.805391,4.717129 -5.237275,5.180396 -0.529678,0.0715 -2.724402,0.107483 -3.303156,0.05416 z M 18.507439,63.517428 v -6.632099 h 4.944424 c 5.367764,0 5.341925,-9.28e-4 6.100848,0.218999 0.79859,0.231423 1.301105,0.519868 1.84701,1.060189 0.444329,0.439784 0.729544,0.862942 0.928286,1.377244 0.615803,1.593571 0.463355,3.607111 -0.370191,4.889513 -0.569956,0.876871 -1.430005,1.511694 -2.437118,1.798897 -0.734826,0.209553 -0.921557,0.21955 -4.100854,0.21955 h -2.937081 v -1.11989 -1.11989 l 2.942132,-0.01401 c 3.271955,-0.01558 3.152837,-0.0064 3.742025,-0.289746 0.544169,-0.261735 1.004805,-0.837208 1.163957,-1.454134 0.216498,-0.839216 0.04167,-1.799334 -0.437096,-2.400366 -0.325277,-0.40835 -0.917932,-0.712133 -1.564849,-0.802111 -0.196174,-0.02728 -1.564359,-0.04203 -3.900716,-0.04203 h -3.598558 v 5.470991 5.47099 h -1.16111 -1.161109 z m 15.940654,0 v -6.632099 h 1.16111 1.161109 v 6.632099 6.6321 h -1.161109 -1.16111 z m 9.95799,6.58968 c -3.272477,-0.414925 -5.589069,-3.200541 -5.589069,-6.720647 0,-2.247091 0.900571,-4.136266 2.538697,-5.325554 0.545322,-0.395907 1.35631,-0.768862 2.080566,-0.956806 0.819764,-0.212728 0.962421,-0.218772 5.163624,-0.218772 h 3.874909 v 1.161109 1.161109 l -3.729326,0.0012 c -2.172798,7.08e-4 -3.852534,0.01715 -4.024524,0.0394 -1.966578,0.254389 -3.324424,1.684678 -3.546244,3.735442 -0.108192,1.000245 0.123387,2.094566 0.618197,2.92128 0.105904,0.176941 0.342045,0.479611 0.524759,0.672601 0.546059,0.57677 1.135015,0.915904 1.980893,1.140641 0.321188,0.08534 0.358023,0.0862 4.250121,0.09924 l 3.926124,0.01315 v 1.159505 1.159505 l -3.906444,-0.005 c -2.148545,-0.0027 -4.021572,-0.01959 -4.162283,-0.03743 z m 14.169472,-5.42857 V 59.207547 H 56.056538 53.53752 v -1.161109 -1.161109 h 6.199144 6.199144 v 1.161109 1.161109 h -2.519017 -2.519017 v 5.470991 5.47099 h -1.16111 -1.161109 z m 25.150811,-1.16111 v -6.632099 l 5.047874,2.32e-4 c 4.288267,1.97e-4 5.106884,0.0091 5.440017,0.05934 1.81051,0.272881 3.067853,1.288864 3.600251,2.909146 0.221591,0.674383 0.25861,0.944348 0.25677,1.872521 -0.0015,0.77251 -0.01068,0.88439 -0.105,1.284222 -0.178008,0.754592 -0.445702,1.326503 -0.864666,1.847306 -0.372716,0.463313 -0.731507,0.747853 -1.337537,1.060739 l -0.38208,0.197263 1.988571,2.016717 1.98857,2.016717 H 97.707698 96.05626 L 94.374819,68.299625 92.693378,66.449721 H 90.197534 87.70169 v -1.021554 -1.021554 l 3.060212,-0.01281 c 3.012751,-0.01262 3.064989,-0.01416 3.368183,-0.09933 0.428147,-0.120283 0.672135,-0.260998 0.98107,-0.565811 0.53831,-0.531127 0.784754,-1.43256 0.662984,-2.42503 -0.131252,-1.069754 -0.651722,-1.703531 -1.637147,-1.993559 -0.268744,-0.0791 -0.371567,-0.08139 -4.181962,-0.09325 l -3.906445,-0.01216 v 5.472434 5.472434 h -1.16111 -1.161109 z m 16.806574,0 v -6.632099 h 5.92363 5.92363 v 1.161109 1.161109 h -4.76252 -4.76252 v 4.309881 4.309881 h 4.7822 4.7822 v 1.161109 1.16111 h -5.94331 -5.94331 z m 4.00157,0.859352 c -0.0144,-0.01443 -0.0262,-0.457228 -0.0262,-0.983991 v -0.957751 h 3.6998 3.69981 v 0.983991 0.983991 h -3.67357 c -2.02046,0 -3.68537,-0.01181 -3.6998,-0.02624 z"
       style="fill:#deeaf0;fill-opacity:1"
       id="path1-0" />
    <path
       d="M 100.5723,76.604509 V 72.07815 h 1.18079 1.18079 v 4.526359 4.526359 h -1.18079 -1.18079 z m 4.72316,0 V 72.07815 h 1.18079 1.18079 v 4.526359 4.526359 h -1.18079 -1.18079 z m 4.72316,0 V 72.07815 h 1.18079 1.18079 v 4.526359 4.526359 h -1.18079 -1.18079 z"
       style="fill:#a6cee0;fill-opacity:1"
       id="path1-3" />
  </g>
</svg>
