<?xml version="1.0" encoding="UTF-8" standalone="no"?>
<!-- Created with Inkscape (http://www.inkscape.org/) -->

<svg
   width="256"
   height="256"
   viewBox="0 0 67.733333 67.733334"
   version="1.1"
   id="svg1"
   inkscape:version="1.3.2 (091e20e, 2023-11-25, custom)"
   sodipodi:docname="icon.svg"
   xmlns:inkscape="http://www.inkscape.org/namespaces/inkscape"
   xmlns:sodipodi="http://sodipodi.sourceforge.net/DTD/sodipodi-0.dtd"
   xmlns="http://www.w3.org/2000/svg"
   xmlns:svg="http://www.w3.org/2000/svg">
  <sodipodi:namedview
     id="namedview1"
     pagecolor="#ffffff"
     bordercolor="#000000"
     borderopacity="0.25"
     inkscape:showpageshadow="2"
     inkscape:pageopacity="0.0"
     inkscape:pagecheckerboard="0"
     inkscape:deskcolor="#d1d1d1"
     inkscape:document-units="mm"
     inkscape:zoom="2.8284271"
     inkscape:cx="117.73328"
     inkscape:cy="96.696852"
     inkscape:window-width="2560"
     inkscape:window-height="1369"
     inkscape:window-x="-8"
     inkscape:window-y="-8"
     inkscape:window-maximized="1"
     inkscape:current-layer="g1" />
  <defs
     id="defs1" />
  <g
     inkscape:label="Ebene 1"
     inkscape:groupmode="layer"
     id="layer1">
    <g
       id="g1"
       transform="matrix(1.1042093,0,0,1.1042093,-3.3643105,-3.5287222)">
      <path
         style="fill:#a6cee0;fill-opacity:1;stroke-width:4.84441"
         d="m 36.792536,55.519212 c 0.09215,0.05645 -0.138359,-1.840565 -0.138359,-3.920486 v -3.781693 l 3.552591,-0.0015 c 6.728319,-0.0028 9.505775,-0.07617 10.244528,-0.195729 1.999268,-0.324444 3.261712,-0.900635 4.331419,-1.976993 1.098244,-1.105092 1.433779,-1.969862 1.421149,-3.663292 -0.01447,-2.197842 -0.848718,-3.533659 -2.800693,-4.494896 0,0 -0.765429,-0.255683 -1.228669,-0.366098 -1.759947,-0.419474 -5.480465,-0.396411 -5.480465,-0.396411 l -2.878186,0.01857 v -3.219535 -3.21953 l 2.397159,-0.01241 c 5.278487,-0.02729 6.226082,-0.154387 7.650267,-1.404728 1.013348,-0.889693 1.427897,-1.970487 1.435563,-3.74303 0.0096,-2.49008 -0.985921,-3.996463 -3.196633,-4.830428 -1.131508,-0.426648 -3.905589,-0.430477 -10.98974,-0.523016 l -4.362934,-0.09545 -0.05206,-3.77186 -0.05207,-3.771906 5.463396,0.0564 c 8.488,0.08764 10.963081,0.05833 12.470958,0.484355 4.451265,1.257382 7.226742,3.830576 8.212131,7.613668 0.370727,1.422449 0.370727,4.792246 0,6.214743 -0.647637,2.486322 -2.026941,4.372446 -4.020182,5.497398 l -1.070622,0.604202 1.300772,0.686637 c 1.701866,0.898419 3.098716,2.316772 3.942325,4.003068 0.924114,1.847218 1.1452,3.08281 1.042515,5.82782 -0.06942,1.85122 -0.187051,2.591659 -0.607769,3.819876 -1.477841,4.314208 -4.666566,7.041718 -9.646154,8.251133 -1.06469,0.258398 -2.195186,0.188761 -11.767154,0.375546 -4.726272,-0.01509 -5.267022,-0.122011 -5.173324,-0.06461 z"
         id="path1"
         sodipodi:nodetypes="sscssscssccccsscsscccssssscssscscss" />
      <path
         id="rect1"
         style="fill:#5f9cb5;fill-opacity:1;stroke-width:1.87722;stroke-linecap:round;stroke-opacity:0"
         d="M 3.4248503,12.291545 H 31.398386 v 7.403973 H 3.4248503 Z"
         sodipodi:nodetypes="ccccc" />
      <path
         id="rect1-1"
         style="fill:#5f9cb5;fill-opacity:1;stroke-width:1.87722;stroke-linecap:round;stroke-opacity:0"
         d="M 3.4248503,47.941106 H 31.398386 v 7.447342 H 3.4248503 Z"
         sodipodi:nodetypes="ccccc" />
      <path
         id="rect1-1-6"
         style="fill:#5f9cb5;fill-opacity:1;stroke-width:1.87722;stroke-linecap:round;stroke-opacity:0"
         d="M 3.4248503,30.313797 H 31.398386 v 6.385201 H 3.4248503 Z"
         sodipodi:nodetypes="ccccc" />
    </g>
  </g>
</svg>
