<?xml version="1.0" encoding="UTF-8" standalone="no"?>
<!-- Created with Inkscape (http://www.inkscape.org/) -->

<svg
   width="79.427757mm"
   height="79.447861mm"
   viewBox="0 0 79.427757 79.447861"
   version="1.1"
   id="svg1"
   xml:space="preserve"
   xmlns="http://www.w3.org/2000/svg"
   xmlns:svg="http://www.w3.org/2000/svg"><defs
     id="defs1" /><g
     id="layer1"
     transform="translate(-32.887416,-22.509572)"><path
       style="fill:#a6cee0;stroke:none;fill-opacity:1"
       d="m 42.799748,101.52621 c -4.515052,-1.21596 -8.277538,-5.006514 -9.454451,-9.524988 -0.610508,-2.343899 -0.610508,-57.165364 0,-59.509263 1.192541,-4.578472 4.9651,-8.339324 9.567891,-9.538199 2.273805,-0.592251 57.155162,-0.592251 59.428962,0 4.75211,1.237768 8.68348,5.353876 9.68063,10.135541 0.20278,0.972369 0.29239,9.975157 0.29239,29.374476 0,26.433273 -0.027,28.069802 -0.49091,29.742768 -1.25353,4.520614 -4.93178,8.101235 -9.59791,9.343175 -2.09738,0.55823 -57.347642,0.53638 -59.426602,-0.0235 z m 59.500722,-5.584711 c 1.56926,-0.725421 3.13186,-2.288017 3.94968,-3.949679 0.64106,-1.302521 0.64106,-1.302521 0.64106,-29.612938 0,-31.26022 0.12667,-28.980671 -1.75191,-31.527354 -0.72219,-0.979022 -1.43962,-1.577384 -2.53786,-2.116667 -1.53106,-0.751813 -1.53106,-0.751813 -29.973771,-0.751813 -28.442708,0 -28.442708,0 -29.979112,0.754427 -1.853724,0.910243 -3.431557,2.771087 -4.014729,4.73484 -0.507078,1.707515 -0.613553,54.749254 -0.114574,57.075915 0.562385,2.622308 2.837358,5.010648 5.446719,5.718139 1.020519,0.276699 6.889268,0.336018 29.190863,0.295046 27.913544,-0.05128 27.913544,-0.05128 29.143634,-0.619916 z M 60.853711,80.460327 c -1.516775,-0.834125 -1.443442,0.09121 -1.443442,-18.213736 0,-20.305087 -0.508653,-18.520834 5.2799,-18.520834 5.788554,0 5.2799,-1.784253 5.2799,18.520834 0,18.365056 0.07716,17.422711 -1.492193,18.225283 -0.753518,0.385353 -6.919422,0.376014 -7.624165,-0.01155 z m 15.875,0 c -1.516775,-0.834125 -1.443442,0.09121 -1.443442,-18.213736 0,-20.305087 -0.508653,-18.520834 5.2799,-18.520834 5.788553,0 5.2799,-1.784253 5.2799,18.520834 0,18.365056 0.07716,17.422711 -1.492193,18.225283 -0.753518,0.385353 -6.919422,0.376014 -7.624165,-0.01155 z"
       id="path582" /></g></svg>
